{"title":"Vertical Limit 2000 BluRayRip 1080p x264 BigPerm LKRG","uid":6839238,"size":8191454031,"categoryP":"video","categoryS":"hd___movies","magnet":"?xt=urn:btih:ae551358bd2e831b5fab91a76a8e982547f00ba7&amp;dn=Vertical+Limit+2000+BluRayRip+1080p+x264+BigPerm+LKRG&amp;tr=udp%3A%2F%2Ftracker.openbittorrent.com%3A80&amp;tr=udp%3A%2F%2Fopen.demonii.com%3A1337&amp;tr=udp%3A%2F%2Ftracker.coppersurfer.tk%3A6969&amp;tr=udp%3A%2F%2Fexodus.desync.com%3A6969","seeders":1,"leechers":0,"uploader":".BONE.","files":2,"time":1322115885,"description":"Encoded By .......: BigPerm\nRuntime ..........: 2h 4mn\nFile Size ........: 7.63 GB\nResolution .......: 1904 x 1040 &lt;a href=&quot;\nhttp://www.imdb.com/title/tt0190865/&quot; rel=&quot;nofollow&quot; target=&quot;_NEW&quot;&gt;\nhttp://www.imdb.com/title/tt0190865/&lt;/a&gt;\nGenre ............: Action,Adventure,Thriller\nSource ...........: BluRay\nLanguage .........: English\nSubtitles ........: None\nGeneral\n\nComplete name : Verical Limit 2000 1080p DTS BluRay x264 BigPerm LKRG\\Vertical Limit.mkv\nFormat : Matroska\nFile size : 7.63 GiB\nDuration : 2h 4mn\nOverall bit rate : 8 776 Kbps\nEncoded date : UTC 2011-11-14 06:13:19\nWriting application : mkvmerge v4.3.0 ('Escape from the Island') built on Sep 5 2010 10:30:51\nWriting library : libebml v1.0.0 + libmatroska v1.0.0\nVideo\nID : 1\nFormat : AVC\nFormat/Info : Advanced Video Codec\nFormat profile : &lt;a class=&quot;__cf_email__&quot; href=&quot;/cdn-cgi/l/email-protection&quot; data-cfemail=&quot;743c1d131c3438405a44&quot;&gt;[email&amp;#160;protected]&lt;/a&gt;&lt;script cf-hash='f9e31' type=&quot;text/javascript&quot;&gt;\n/* &lt;![CDATA[ */!function(){try{var t=&quot;currentScript&quot;in document?document.currentScript:function(){for(var t=document.getElementsByTagName(&quot;script&quot;),e=t.length;e--;)if(t[e].getAttribute(&quot;cf-hash&quot;))return t[e]}();if(t&amp;&amp;t.previousSibling){var e,r,n,i,c=t.previousSibling,a=c.getAttribute(&quot;data-cfemail&quot;);if(a){for(e=&quot;&quot;,r=parseInt(a.substr(0,2),16),n=2;a.length-n;n+=2)i=parseInt(a.substr(n,2),16)^r,e+=String.fromCharCode(i);e=document.createTextNode(e),c.parentNode.replaceChild(e,c)}}}catch(u){}}();/* ]]&gt; */&lt;/script&gt;\nFormat settings, CABAC : Yes\nFormat settings, ReFrames : 4 frames\nFormat settings, GOP : M=4, N=16\nCodec ID : V_MPEG4/ISO/AVC\nDuration : 2h 4mn\nBit rate : 8 153 Kbps\nWidth : 1 904 pixels\nHeight : 1 040 pixels\nDisplay aspect ratio : 16:9\nFrame rate : 23.976 fps\nColor space : YUV\nChroma subsampling : 4:2:0\nBit depth : 8 bits\nScan type : Progressive\nBits/(Pixel*Frame) : 0.172\nStream size : 7.09 GiB (93%)\n\nAudio\nID : 2\nFormat : AC-3\nFormat/Info : Audio Coding 3\nMode extension : CM (complete main)\nCodec ID : A_AC3\nDuration : 2h 4mn\nBit rate mode : Constant\nBit rate : 448 Kbps\nChannel(s) : 6 channels\nChannel positions : Front: L C R, Side: L R, LFE\nSampling rate : 48.0 KHz\nBit depth : 16 bits\nCompression mode : Lossy\nStream size : 399 MiB (5%)\nLanguage : English","torrent":{"xt":"urn:btih:ae551358bd2e831b5fab91a76a8e982547f00ba7","amp;dn":"Vertical+Limit+2000+BluRayRip+1080p+x264+BigPerm+LKRG","amp;tr":["udp%3A%2F%2Ftracker.openbittorrent.com%3A80","udp%3A%2F%2Fopen.demonii.com%3A1337","udp%3A%2F%2Ftracker.coppersurfer.tk%3A6969","udp%3A%2F%2Fexodus.desync.com%3A6969"],"infoHash":"ae551358bd2e831b5fab91a76a8e982547f00ba7","infoHashBuffer":{"type":"Buffer","data":[174,85,19,88,189,46,131,27,95,171,145,167,106,142,152,37,71,240,11,167]},"announce":[],"urlList":[]}}